<svg width="804" height="330" viewBox="0 0 804 330" fill="none" xmlns="http://www.w3.org/2000/svg">
<g filter="url(#filter0_di_1418_2248)">
<rect x="40" y="36" width="760" height="250" rx="40" fill="white"/>
</g>
<g filter="url(#filter1_d_1418_2248)">
<rect x="40" y="36" width="250" height="250" rx="40" fill="white"/>
</g>
<path d="M158.865 79H185.724V202.102C171.966 204.705 161.839 205.728 150.88 205.728C118.076 205.694 101 191.039 101 162.892C101 135.773 119.113 118.172 147.182 118.172C151.537 118.172 154.855 118.515 158.865 119.542V79ZM159.806 141.726C156.661 140.699 154.069 140.357 150.75 140.357C137.165 140.357 129.319 148.643 129.319 163.165C129.319 177.303 136.82 185.11 150.577 185.11C153.55 185.11 155.97 184.943 159.806 184.429V141.726V141.726Z" fill="#2BA977"/>
<path d="M229.645 121.477V183.113C229.645 204.339 228.055 214.547 223.388 223.347C219.033 231.808 213.295 237.143 201.438 243.036L176.516 231.291C188.372 225.781 194.11 220.912 197.774 213.482C201.611 205.884 202.821 197.083 202.821 173.936V121.478H229.645V121.477ZM200.114 79H226.973V106.291H200.114V79Z" fill="#2BA977"/>
<path d="M417.559 191C416.647 191 415.98 190.788 415.557 190.365C415.133 189.942 414.922 189.291 414.922 188.412V132.846C414.922 131.934 415.133 131.283 415.557 130.893C415.98 130.469 416.647 130.258 417.559 130.258H435.088C443.226 130.258 449.736 132.667 454.619 137.484C459.502 142.302 461.943 150.001 461.943 160.58C461.943 171.225 459.502 178.956 454.619 183.773C449.736 188.591 443.226 191 435.088 191H417.559ZM434.502 184.408C440.361 184.408 445.081 182.504 448.662 178.695C452.243 174.854 454.033 168.816 454.033 160.58C454.033 155.046 453.187 150.521 451.494 147.006C449.801 143.458 447.49 140.886 444.561 139.291C441.631 137.663 438.278 136.85 434.502 136.85H422.588V184.408H434.502ZM478.789 134.652C476.445 134.652 475.273 134.018 475.273 132.748V127.621C475.273 126.352 476.445 125.717 478.789 125.717H479.814C482.126 125.717 483.281 126.352 483.281 127.621V132.748C483.281 134.018 482.126 134.652 479.814 134.652H478.789ZM471.758 209.408C467.493 209.408 465.361 208.546 465.361 206.82C465.361 206.495 465.443 205.99 465.605 205.307C465.736 204.656 465.947 204.053 466.24 203.5C466.533 202.979 466.859 202.719 467.217 202.719C467.412 202.719 467.819 202.784 468.438 202.914C469.056 203.077 469.902 203.158 470.977 203.158C472.409 203.158 473.532 202.686 474.346 201.742C475.192 200.831 475.615 199.171 475.615 196.762V147.348C475.615 146.078 476.787 145.443 479.131 145.443H479.473C481.784 145.443 482.939 146.078 482.939 147.348V197.396C482.939 201.889 481.8 205.014 479.521 206.771C477.243 208.529 474.655 209.408 471.758 209.408ZM509.99 191.488C505.563 191.488 501.982 190.398 499.248 188.217C496.514 186.036 495.146 182.797 495.146 178.5C495.146 173.975 496.53 170.574 499.297 168.295C502.064 165.984 505.433 164.503 509.404 163.852C513.408 163.168 518.258 162.777 523.955 162.68V158.578C523.955 156.397 523.206 154.656 521.709 153.354C520.244 152.019 517.819 151.352 514.434 151.352C511.862 151.352 509.6 151.661 507.646 152.279C505.726 152.865 503.919 153.581 502.227 154.428C501.51 154.786 501.071 154.965 500.908 154.965C500.518 154.965 500.078 154.688 499.59 154.135C499.134 153.549 498.727 152.898 498.369 152.182C498.044 151.465 497.881 150.945 497.881 150.619C497.881 149.87 498.646 149.057 500.176 148.178C501.738 147.299 503.773 146.566 506.279 145.98C508.786 145.395 511.406 145.102 514.141 145.102C519.577 145.102 523.792 146.29 526.787 148.666C529.782 151.042 531.279 154.379 531.279 158.676V178.158C531.279 181.934 531.442 184.669 531.768 186.361C532.126 188.021 532.305 188.933 532.305 189.096C532.305 189.812 531.751 190.333 530.645 190.658C529.57 190.951 528.561 191.098 527.617 191.098C526.836 191.098 526.25 190.658 525.859 189.779C525.501 188.9 525.143 187.631 524.785 185.971L524.59 184.994C522.799 186.98 520.684 188.559 518.242 189.73C515.833 190.902 513.083 191.488 509.99 191.488ZM510.381 185.189C513.245 185.189 515.687 184.669 517.705 183.627C519.723 182.585 521.807 181.104 523.955 179.184V168.93C519.658 168.962 516.126 169.141 513.359 169.467C510.592 169.792 508.167 170.622 506.084 171.957C504.001 173.259 502.959 175.294 502.959 178.061C502.959 180.372 503.577 182.146 504.814 183.383C506.084 184.587 507.939 185.189 510.381 185.189ZM549.248 191.146C548.011 191.146 547.116 191 546.562 190.707C546.009 190.382 545.732 189.893 545.732 189.242V158.773C545.732 154.997 545.553 152.279 545.195 150.619C544.837 148.926 544.658 147.999 544.658 147.836C544.658 147.12 545.195 146.615 546.27 146.322C547.376 145.997 548.418 145.834 549.395 145.834C550.208 145.834 550.811 146.273 551.201 147.152C551.592 148.031 551.868 148.926 552.031 149.838C552.227 150.749 552.357 151.335 552.422 151.596C554.245 149.545 556.344 147.95 558.721 146.811C561.13 145.671 563.555 145.102 565.996 145.102C570.423 145.102 573.874 146.355 576.348 148.861C578.854 151.335 580.107 154.753 580.107 159.115V189.242C580.107 189.893 579.831 190.382 579.277 190.707C578.724 191 577.845 191.146 576.641 191.146H576.25C575.078 191.146 574.215 191 573.662 190.707C573.109 190.382 572.832 189.893 572.832 189.242V159.848C572.832 157.178 572.051 155.111 570.488 153.646C568.958 152.149 566.794 151.4 563.994 151.4C562.041 151.4 560.072 151.954 558.086 153.061C556.133 154.135 554.44 155.616 553.008 157.504V189.242C553.008 189.893 552.731 190.382 552.178 190.707C551.624 191 550.762 191.146 549.59 191.146H549.248ZM608.574 209.408C603.04 209.408 598.662 208.546 595.439 206.82C592.217 205.095 590.605 202.377 590.605 198.666C590.605 196.127 591.338 193.913 592.803 192.025C594.268 190.137 596.172 188.721 598.516 187.777L598.613 187.582C597.474 186.703 596.595 185.694 595.977 184.555C595.391 183.415 595.098 182.064 595.098 180.502C595.098 176.726 596.725 173.699 599.98 171.42C597.539 170.248 595.684 168.604 594.414 166.488C593.145 164.34 592.51 161.931 592.51 159.262C592.51 156.592 593.161 154.184 594.463 152.035C595.798 149.887 597.751 148.194 600.322 146.957C602.894 145.72 605.986 145.102 609.6 145.102C611.52 145.102 613.229 145.264 614.727 145.59H630.498C631.117 145.59 631.556 145.801 631.816 146.225C632.109 146.615 632.256 147.266 632.256 148.178V149.252C632.256 150.163 632.109 150.831 631.816 151.254C631.556 151.645 631.117 151.84 630.498 151.84C628.317 151.84 626.299 151.758 624.443 151.596L624.346 151.742C625.094 152.784 625.648 153.956 626.006 155.258C626.396 156.527 626.592 157.862 626.592 159.262C626.592 161.931 625.924 164.34 624.59 166.488C623.288 168.637 621.351 170.329 618.779 171.566C616.24 172.803 613.148 173.422 609.502 173.422C606.768 173.52 604.701 174.024 603.301 174.936C601.934 175.847 601.25 177.344 601.25 179.428C601.25 180.958 601.738 182.13 602.715 182.943C603.724 183.757 604.977 184.327 606.475 184.652C607.972 184.978 610.055 185.287 612.725 185.58L615.264 185.873C617.965 186.231 620.228 186.719 622.051 187.338C623.874 187.956 625.371 188.982 626.543 190.414C627.747 191.846 628.35 193.816 628.35 196.322C628.35 200.521 626.673 203.744 623.32 205.99C619.967 208.269 615.052 209.408 608.574 209.408ZM609.502 167.66C612.692 167.66 615.231 167.009 617.119 165.707C619.007 164.405 619.951 162.273 619.951 159.311C619.951 153.712 616.468 150.912 609.502 150.912C602.633 150.912 599.199 153.712 599.199 159.311C599.199 162.273 600.127 164.405 601.982 165.707C603.87 167.009 606.377 167.66 609.502 167.66ZM609.502 203.5C613.538 203.5 616.533 202.963 618.486 201.889C620.439 200.847 621.416 199.252 621.416 197.104C621.416 195.704 620.895 194.613 619.854 193.832C618.812 193.083 617.526 192.546 615.996 192.221C614.499 191.928 612.513 191.651 610.039 191.391C608.346 191.195 606.947 191.016 605.84 190.854C604.766 190.691 603.773 190.463 602.861 190.17C599.02 191.798 597.1 194.158 597.1 197.25C597.1 201.417 601.234 203.5 609.502 203.5ZM658.965 191.488C652.422 191.488 647.425 189.535 643.975 185.629C640.557 181.69 638.848 175.977 638.848 168.49C638.848 161.003 640.589 155.242 644.072 151.205C647.555 147.136 652.52 145.102 658.965 145.102C665.345 145.102 670.228 147.12 673.613 151.156C676.999 155.16 678.691 160.938 678.691 168.49C678.691 176.01 677.015 181.723 673.662 185.629C670.342 189.535 665.443 191.488 658.965 191.488ZM658.721 185.238C662.952 185.238 666.077 183.871 668.096 181.137C670.114 178.37 671.123 174.105 671.123 168.344C671.123 162.549 670.114 158.269 668.096 155.502C666.077 152.735 662.952 151.352 658.721 151.352C654.521 151.352 651.429 152.735 649.443 155.502C647.458 158.236 646.465 162.517 646.465 168.344C646.465 174.138 647.441 178.402 649.395 181.137C651.38 183.871 654.489 185.238 658.721 185.238Z" fill="#323838"/>
<defs>
<filter id="filter0_di_1418_2248" x="36" y="36" width="768" height="258" filterUnits="userSpaceOnUse" color-interpolation-filters="sRGB">
<feFlood flood-opacity="0" result="BackgroundImageFix"/>
<feColorMatrix in="SourceAlpha" type="matrix" values="0 0 0 0 0 0 0 0 0 0 0 0 0 0 0 0 0 0 127 0" result="hardAlpha"/>
<feOffset dy="4"/>
<feGaussianBlur stdDeviation="2"/>
<feComposite in2="hardAlpha" operator="out"/>
<feColorMatrix type="matrix" values="0 0 0 0 0 0 0 0 0 0 0 0 0 0 0 0 0 0 0.25 0"/>
<feBlend mode="normal" in2="BackgroundImageFix" result="effect1_dropShadow_1418_2248"/>
<feBlend mode="normal" in="SourceGraphic" in2="effect1_dropShadow_1418_2248" result="shape"/>
<feColorMatrix in="SourceAlpha" type="matrix" values="0 0 0 0 0 0 0 0 0 0 0 0 0 0 0 0 0 0 127 0" result="hardAlpha"/>
<feOffset dy="4"/>
<feGaussianBlur stdDeviation="20"/>
<feComposite in2="hardAlpha" operator="arithmetic" k2="-1" k3="1"/>
<feColorMatrix type="matrix" values="0 0 0 0 0 0 0 0 0 0 0 0 0 0 0 0 0 0 0.25 0"/>
<feBlend mode="normal" in2="shape" result="effect2_innerShadow_1418_2248"/>
</filter>
<filter id="filter1_d_1418_2248" x="0" y="0" width="330" height="330" filterUnits="userSpaceOnUse" color-interpolation-filters="sRGB">
<feFlood flood-opacity="0" result="BackgroundImageFix"/>
<feColorMatrix in="SourceAlpha" type="matrix" values="0 0 0 0 0 0 0 0 0 0 0 0 0 0 0 0 0 0 127 0" result="hardAlpha"/>
<feOffset dy="4"/>
<feGaussianBlur stdDeviation="20"/>
<feComposite in2="hardAlpha" operator="out"/>
<feColorMatrix type="matrix" values="0 0 0 0 0 0 0 0 0 0 0 0 0 0 0 0 0 0 0.25 0"/>
<feBlend mode="normal" in2="BackgroundImageFix" result="effect1_dropShadow_1418_2248"/>
<feBlend mode="normal" in="SourceGraphic" in2="effect1_dropShadow_1418_2248" result="shape"/>
</filter>
</defs>
</svg>
