<svg width="804" height="330" viewBox="0 0 804 330" fill="none" xmlns="http://www.w3.org/2000/svg">
<g filter="url(#filter0_di_1419_2440)">
<rect x="40" y="36" width="760" height="250" rx="40" fill="white"/>
</g>
<g filter="url(#filter1_d_1419_2440)">
<rect x="40" y="36" width="250" height="250" rx="40" fill="white"/>
</g>
<path d="M249.503 145.646C249.035 145.275 244.676 141.983 235.481 141.983C233.053 141.994 230.631 142.202 228.237 142.606C226.457 130.409 216.373 124.462 215.921 124.195L213.452 122.771L211.828 125.115C209.795 128.262 208.31 131.732 207.439 135.377C205.792 142.339 206.793 148.879 210.33 154.47C206.059 156.85 199.208 157.436 197.822 157.488H84.3903C81.4275 157.492 79.0234 159.886 79.0072 162.848C78.8749 172.786 80.5585 182.664 83.9751 191.996C87.8826 202.243 93.6959 209.791 101.259 214.411C109.734 219.601 123.503 222.567 139.111 222.567C146.162 222.589 153.2 221.951 160.132 220.661C169.769 218.892 179.042 215.524 187.567 210.696C194.592 206.628 200.914 201.453 206.289 195.37C215.276 185.196 220.63 173.867 224.611 163.798H226.198C236.037 163.798 242.088 159.86 245.425 156.561C247.642 154.456 249.373 151.893 250.496 149.05L251.201 146.988L249.503 145.646Z" fill="#2496ED"/>
<path d="M94.9043 154.165H110.105C110.838 154.165 111.432 153.57 111.432 152.838V139.298C111.436 138.565 110.845 137.967 110.112 137.963C110.11 137.963 110.107 137.963 110.105 137.963H94.9043C94.1712 137.963 93.5771 138.558 93.5771 139.291V139.298V152.837C93.5771 153.57 94.1712 154.165 94.9043 154.165V154.165Z" fill="#2496ED"/>
<path d="M115.851 154.165H131.052C131.785 154.165 132.379 153.57 132.379 152.838V139.298C132.383 138.565 131.792 137.967 131.059 137.963C131.057 137.963 131.054 137.963 131.052 137.963H115.851C115.114 137.963 114.517 138.561 114.517 139.298V152.837C114.521 153.572 115.117 154.165 115.851 154.165" fill="#2496ED"/>
<path d="M137.116 154.165H152.317C153.05 154.165 153.644 153.57 153.644 152.838V139.298C153.648 138.565 153.057 137.967 152.324 137.963C152.322 137.963 152.319 137.963 152.317 137.963H137.116C136.383 137.963 135.789 138.558 135.789 139.291V139.298V152.837C135.789 153.57 136.384 154.165 137.116 154.165V154.165Z" fill="#2496ED"/>
<path d="M158.131 154.165H173.331C174.065 154.165 174.662 153.572 174.666 152.838V139.298C174.666 138.561 174.068 137.963 173.331 137.963H158.131C157.398 137.963 156.804 138.558 156.804 139.291V139.298V152.837C156.804 153.57 157.398 154.165 158.131 154.165V154.165Z" fill="#2496ED"/>
<path d="M115.851 134.688H131.052C131.786 134.684 132.379 134.088 132.379 133.354V119.814C132.379 119.081 131.784 118.487 131.052 118.487H115.851C115.117 118.487 114.521 119.08 114.517 119.814V133.354C114.521 134.089 115.116 134.684 115.851 134.688Z" fill="#2496ED"/>
<path d="M137.116 134.688H152.317C153.051 134.684 153.644 134.088 153.644 133.354V119.814C153.644 119.081 153.049 118.487 152.317 118.487H137.116C136.383 118.487 135.789 119.082 135.789 119.814V133.354C135.789 134.088 136.382 134.684 137.116 134.688Z" fill="#2496ED"/>
<path d="M158.131 134.688H173.331C174.067 134.684 174.662 134.089 174.666 133.354V119.814C174.662 119.08 174.065 118.487 173.331 118.487H158.131C157.398 118.487 156.804 119.082 156.804 119.814V133.354C156.804 134.088 157.397 134.684 158.131 134.688Z" fill="#2496ED"/>
<path d="M158.131 115.201H173.331C174.065 115.201 174.662 114.608 174.666 113.874V100.327C174.662 99.5928 174.065 99 173.331 99H158.131C157.398 99 156.804 99.5941 156.804 100.327V113.874C156.804 114.607 157.398 115.201 158.131 115.201Z" fill="#2496ED"/>
<path d="M179.329 154.165H194.529C195.264 154.165 195.86 153.572 195.864 152.838V139.298C195.864 138.561 195.267 137.963 194.529 137.963H179.329C178.596 137.963 178.002 138.558 178.002 139.291V139.298V152.837C178.002 153.57 178.596 154.165 179.329 154.165" fill="#2496ED"/>
<path d="M418.193 191C417.282 191 416.615 190.788 416.191 190.365C415.768 189.942 415.557 189.291 415.557 188.412V132.846C415.557 131.934 415.768 131.283 416.191 130.893C416.615 130.469 417.282 130.258 418.193 130.258H435.723C443.861 130.258 450.371 132.667 455.254 137.484C460.137 142.302 462.578 150.001 462.578 160.58C462.578 171.225 460.137 178.956 455.254 183.773C450.371 188.591 443.861 191 435.723 191H418.193ZM435.137 184.408C440.996 184.408 445.716 182.504 449.297 178.695C452.878 174.854 454.668 168.816 454.668 160.58C454.668 155.046 453.822 150.521 452.129 147.006C450.436 143.458 448.125 140.886 445.195 139.291C442.266 137.663 438.913 136.85 435.137 136.85H423.223V184.408H435.137ZM492.412 191.488C485.869 191.488 480.872 189.535 477.422 185.629C474.004 181.69 472.295 175.977 472.295 168.49C472.295 161.003 474.036 155.242 477.52 151.205C481.003 147.136 485.967 145.102 492.412 145.102C498.792 145.102 503.675 147.12 507.061 151.156C510.446 155.16 512.139 160.938 512.139 168.49C512.139 176.01 510.462 181.723 507.109 185.629C503.789 189.535 498.89 191.488 492.412 191.488ZM492.168 185.238C496.4 185.238 499.525 183.871 501.543 181.137C503.561 178.37 504.57 174.105 504.57 168.344C504.57 162.549 503.561 158.269 501.543 155.502C499.525 152.735 496.4 151.352 492.168 151.352C487.969 151.352 484.876 152.735 482.891 155.502C480.905 158.236 479.912 162.517 479.912 168.344C479.912 174.138 480.889 178.402 482.842 181.137C484.827 183.871 487.936 185.238 492.168 185.238ZM542.803 191.488C535.609 191.488 530.238 189.649 526.689 185.971C523.174 182.26 521.416 176.303 521.416 168.1C521.416 159.799 523.385 153.891 527.324 150.375C531.263 146.859 536.162 145.102 542.021 145.102C544.202 145.102 546.302 145.297 548.32 145.688C550.339 146.046 551.966 146.534 553.203 147.152C554.44 147.771 555.059 148.422 555.059 149.105C555.059 149.561 554.896 150.163 554.57 150.912C554.277 151.661 553.903 152.328 553.447 152.914C553.024 153.467 552.633 153.744 552.275 153.744C552.178 153.744 552.031 153.712 551.836 153.646C551.641 153.549 551.462 153.467 551.299 153.402C548.369 152.035 545.212 151.352 541.826 151.352C537.822 151.352 534.73 152.67 532.549 155.307C530.368 157.911 529.277 162.11 529.277 167.904C529.277 172.006 529.717 175.326 530.596 177.865C531.475 180.372 532.891 182.227 534.844 183.432C536.829 184.636 539.466 185.238 542.754 185.238C546.367 185.238 549.622 184.49 552.52 182.992C552.812 182.927 553.024 182.862 553.154 182.797C553.317 182.699 553.431 182.65 553.496 182.65C553.854 182.65 554.261 182.927 554.717 183.48C555.173 184.034 555.563 184.669 555.889 185.385C556.247 186.101 556.426 186.671 556.426 187.094C556.426 187.777 555.807 188.461 554.57 189.145C553.333 189.828 551.657 190.398 549.541 190.854C547.458 191.277 545.212 191.488 542.803 191.488ZM570.684 191.146C568.34 191.146 567.168 190.512 567.168 189.242V127.621C567.168 126.352 568.34 125.717 570.684 125.717H571.025C573.337 125.717 574.492 126.352 574.492 127.621V166.439H574.834L591.436 146.615C592.054 145.834 593.584 145.443 596.025 145.443H596.318C597.327 145.443 598.092 145.541 598.613 145.736C599.134 145.932 599.395 146.192 599.395 146.518C599.395 147.006 599.102 147.592 598.516 148.275L582.354 167.367L600.273 188.559C600.762 189.112 601.006 189.568 601.006 189.926C601.006 190.414 600.729 190.74 600.176 190.902C599.622 191.065 598.646 191.146 597.246 191.146H596.855C595.651 191.146 594.674 191.081 593.926 190.951C593.177 190.821 592.591 190.512 592.168 190.023L574.834 169.418H574.492V189.242C574.492 190.512 573.337 191.146 571.025 191.146H570.684ZM630.303 191.488C623.109 191.488 617.754 189.617 614.238 185.873C610.755 182.097 609.014 176.335 609.014 168.588C609.014 160.906 610.723 155.079 614.141 151.107C617.559 147.104 622.588 145.102 629.229 145.102C635.153 145.102 639.613 147.022 642.607 150.863C645.635 154.704 647.148 160.336 647.148 167.758C647.148 168.083 646.969 168.539 646.611 169.125C646.286 169.678 645.879 170.183 645.391 170.639C644.935 171.062 644.544 171.273 644.219 171.273H616.826C617.184 176.124 618.421 179.672 620.537 181.918C622.686 184.132 625.908 185.238 630.205 185.238C632.614 185.238 634.681 184.945 636.406 184.359C638.164 183.773 639.857 183.057 641.484 182.211C641.647 182.146 641.891 182.032 642.217 181.869C642.542 181.706 642.77 181.625 642.9 181.625C643.258 181.625 643.665 181.918 644.121 182.504C644.609 183.057 645.016 183.692 645.342 184.408C645.7 185.092 645.879 185.596 645.879 185.922C645.879 186.638 645.163 187.436 643.73 188.314C642.298 189.193 640.378 189.942 637.969 190.561C635.592 191.179 633.037 191.488 630.303 191.488ZM639.385 165.023C639.385 155.909 635.918 151.352 628.984 151.352C621.53 151.352 617.477 155.909 616.826 165.023H639.385ZM662.432 191.146C661.195 191.146 660.299 191 659.746 190.707C659.193 190.382 658.916 189.893 658.916 189.242V158.773C658.916 154.997 658.737 152.279 658.379 150.619C658.021 148.926 657.842 147.999 657.842 147.836C657.842 147.12 658.379 146.615 659.453 146.322C660.56 145.997 661.602 145.834 662.578 145.834C663.359 145.834 663.945 146.257 664.336 147.104C664.727 147.917 665.068 149.073 665.361 150.57L665.605 151.596C668.698 147.266 672.051 145.102 675.664 145.102C677.324 145.102 678.577 145.411 679.424 146.029C680.27 146.615 680.693 147.413 680.693 148.422C680.693 149.398 680.514 150.44 680.156 151.547C679.831 152.621 679.44 153.158 678.984 153.158C678.757 153.158 678.35 153.061 677.764 152.865C677.243 152.637 676.722 152.475 676.201 152.377C675.68 152.247 675.013 152.182 674.199 152.182C672.865 152.182 671.595 152.572 670.391 153.354C669.219 154.135 668.226 154.997 667.412 155.941C666.598 156.885 666.191 157.406 666.191 157.504V189.242C666.191 189.893 665.915 190.382 665.361 190.707C664.808 191 663.945 191.146 662.773 191.146H662.432Z" fill="#323838"/>
<defs>
<filter id="filter0_di_1419_2440" x="36" y="36" width="768" height="258" filterUnits="userSpaceOnUse" color-interpolation-filters="sRGB">
<feFlood flood-opacity="0" result="BackgroundImageFix"/>
<feColorMatrix in="SourceAlpha" type="matrix" values="0 0 0 0 0 0 0 0 0 0 0 0 0 0 0 0 0 0 127 0" result="hardAlpha"/>
<feOffset dy="4"/>
<feGaussianBlur stdDeviation="2"/>
<feComposite in2="hardAlpha" operator="out"/>
<feColorMatrix type="matrix" values="0 0 0 0 0 0 0 0 0 0 0 0 0 0 0 0 0 0 0.25 0"/>
<feBlend mode="normal" in2="BackgroundImageFix" result="effect1_dropShadow_1419_2440"/>
<feBlend mode="normal" in="SourceGraphic" in2="effect1_dropShadow_1419_2440" result="shape"/>
<feColorMatrix in="SourceAlpha" type="matrix" values="0 0 0 0 0 0 0 0 0 0 0 0 0 0 0 0 0 0 127 0" result="hardAlpha"/>
<feOffset dy="4"/>
<feGaussianBlur stdDeviation="20"/>
<feComposite in2="hardAlpha" operator="arithmetic" k2="-1" k3="1"/>
<feColorMatrix type="matrix" values="0 0 0 0 0 0 0 0 0 0 0 0 0 0 0 0 0 0 0.25 0"/>
<feBlend mode="normal" in2="shape" result="effect2_innerShadow_1419_2440"/>
</filter>
<filter id="filter1_d_1419_2440" x="0" y="0" width="330" height="330" filterUnits="userSpaceOnUse" color-interpolation-filters="sRGB">
<feFlood flood-opacity="0" result="BackgroundImageFix"/>
<feColorMatrix in="SourceAlpha" type="matrix" values="0 0 0 0 0 0 0 0 0 0 0 0 0 0 0 0 0 0 127 0" result="hardAlpha"/>
<feOffset dy="4"/>
<feGaussianBlur stdDeviation="20"/>
<feComposite in2="hardAlpha" operator="out"/>
<feColorMatrix type="matrix" values="0 0 0 0 0 0 0 0 0 0 0 0 0 0 0 0 0 0 0.25 0"/>
<feBlend mode="normal" in2="BackgroundImageFix" result="effect1_dropShadow_1419_2440"/>
<feBlend mode="normal" in="SourceGraphic" in2="effect1_dropShadow_1419_2440" result="shape"/>
</filter>
</defs>
</svg>
