<svg width="804" height="330" viewBox="0 0 804 330" fill="none" xmlns="http://www.w3.org/2000/svg">
<g filter="url(#filter0_di_1416_2180)">
<rect x="40" y="36" width="760" height="250" rx="40" fill="white"/>
</g>
<path d="M392.607 191.146C391.403 191.146 390.524 191 389.971 190.707C389.45 190.382 389.189 189.893 389.189 189.242V132.846C389.189 131.902 389.385 131.234 389.775 130.844C390.199 130.453 390.866 130.258 391.777 130.258H409.355C414.434 130.258 418.926 131.479 422.832 133.92C426.771 136.329 428.74 140.772 428.74 147.25C428.74 152.068 427.617 155.811 425.371 158.48C423.125 161.117 420.602 162.891 417.803 163.803C415.003 164.682 412.48 165.121 410.234 165.121H396.758V189.242C396.758 189.893 396.481 190.382 395.928 190.707C395.374 191 394.512 191.146 393.34 191.146H392.607ZM410.332 158.529C411.797 158.529 413.327 158.22 414.922 157.602C416.517 156.951 417.9 155.795 419.072 154.135C420.244 152.442 420.83 150.147 420.83 147.25C420.83 143.376 419.674 140.674 417.363 139.145C415.085 137.615 412.334 136.85 409.111 136.85H396.758V158.529H410.332ZM456.182 191.488C449.639 191.488 444.642 189.535 441.191 185.629C437.773 181.69 436.064 175.977 436.064 168.49C436.064 161.003 437.806 155.242 441.289 151.205C444.772 147.136 449.736 145.102 456.182 145.102C462.562 145.102 467.445 147.12 470.83 151.156C474.215 155.16 475.908 160.938 475.908 168.49C475.908 176.01 474.232 181.723 470.879 185.629C467.559 189.535 462.66 191.488 456.182 191.488ZM455.938 185.238C460.169 185.238 463.294 183.871 465.312 181.137C467.331 178.37 468.34 174.105 468.34 168.344C468.34 162.549 467.331 158.269 465.312 155.502C463.294 152.735 460.169 151.352 455.938 151.352C451.738 151.352 448.646 152.735 446.66 155.502C444.674 158.236 443.682 162.517 443.682 168.344C443.682 174.138 444.658 178.402 446.611 181.137C448.597 183.871 451.706 185.238 455.938 185.238ZM497.539 191.83C495.098 191.83 492.819 191.521 490.703 190.902C488.587 190.284 486.895 189.535 485.625 188.656C484.388 187.745 483.77 186.947 483.77 186.264C483.77 185.938 483.932 185.417 484.258 184.701C484.616 183.985 485.023 183.35 485.479 182.797C485.967 182.211 486.406 181.918 486.797 181.918C486.895 181.918 487.188 182.081 487.676 182.406C488.978 183.253 490.345 183.969 491.777 184.555C493.242 185.141 494.984 185.434 497.002 185.434C502.666 185.434 505.498 183.09 505.498 178.402C505.498 177.068 505.221 175.945 504.668 175.033C504.147 174.122 503.252 173.324 501.982 172.641C500.745 171.924 499.036 171.241 496.855 170.59C493.73 169.678 491.289 168.637 489.531 167.465C487.806 166.293 486.585 164.926 485.869 163.363C485.153 161.768 484.795 159.848 484.795 157.602C484.795 155.193 485.397 153.028 486.602 151.107C487.839 149.187 489.548 147.689 491.729 146.615C493.942 145.541 496.432 145.004 499.199 145.004C501.12 145.004 502.959 145.183 504.717 145.541C506.507 145.899 507.939 146.371 509.014 146.957C510.12 147.51 510.674 148.096 510.674 148.715C510.674 149.171 510.511 149.789 510.186 150.57C509.893 151.319 509.518 151.986 509.062 152.572C508.607 153.126 508.2 153.402 507.842 153.402C507.777 153.402 507.37 153.207 506.621 152.816C505.872 152.393 504.912 152.019 503.74 151.693C502.601 151.335 501.331 151.156 499.932 151.156C497.718 151.156 495.879 151.661 494.414 152.67C492.982 153.646 492.266 154.965 492.266 156.625C492.266 158.578 492.786 160.141 493.828 161.312C494.87 162.484 496.595 163.445 499.004 164.193C502.715 165.333 505.547 166.472 507.5 167.611C509.453 168.751 510.837 170.15 511.65 171.811C512.497 173.438 512.92 175.587 512.92 178.256C512.92 180.795 512.236 183.106 510.869 185.189C509.502 187.24 507.646 188.868 505.303 190.072C502.959 191.244 500.371 191.83 497.539 191.83ZM537.041 191.488C534.144 191.488 531.556 190.609 529.277 188.852C526.999 187.094 525.859 183.985 525.859 179.525V151.84H521.514C520.895 151.84 520.439 151.645 520.146 151.254C519.886 150.831 519.756 150.163 519.756 149.252V148.178C519.756 147.266 519.886 146.615 520.146 146.225C520.439 145.801 520.895 145.59 521.514 145.59H525.859L526.885 136.508C526.95 135.238 527.878 134.604 529.668 134.604H530.498C531.41 134.604 532.077 134.766 532.5 135.092C532.923 135.385 533.135 135.857 533.135 136.508V145.59H540.41C541.029 145.59 541.468 145.801 541.729 146.225C542.021 146.615 542.168 147.266 542.168 148.178V149.252C542.168 150.163 542.021 150.831 541.729 151.254C541.468 151.645 541.029 151.84 540.41 151.84H533.135V178.842C533.135 181.218 533.542 182.878 534.355 183.822C535.202 184.766 536.341 185.238 537.773 185.238C538.88 185.238 539.727 185.173 540.312 185.043C540.931 184.913 541.338 184.848 541.533 184.848C542.054 184.848 542.477 185.368 542.803 186.41C543.161 187.452 543.34 188.282 543.34 188.9C543.34 190.626 541.24 191.488 537.041 191.488ZM568.291 209.408C562.757 209.408 558.379 208.546 555.156 206.82C551.934 205.095 550.322 202.377 550.322 198.666C550.322 196.127 551.055 193.913 552.52 192.025C553.984 190.137 555.889 188.721 558.232 187.777L558.33 187.582C557.191 186.703 556.312 185.694 555.693 184.555C555.107 183.415 554.814 182.064 554.814 180.502C554.814 176.726 556.442 173.699 559.697 171.42C557.256 170.248 555.4 168.604 554.131 166.488C552.861 164.34 552.227 161.931 552.227 159.262C552.227 156.592 552.878 154.184 554.18 152.035C555.514 149.887 557.467 148.194 560.039 146.957C562.611 145.72 565.703 145.102 569.316 145.102C571.237 145.102 572.946 145.264 574.443 145.59H590.215C590.833 145.59 591.273 145.801 591.533 146.225C591.826 146.615 591.973 147.266 591.973 148.178V149.252C591.973 150.163 591.826 150.831 591.533 151.254C591.273 151.645 590.833 151.84 590.215 151.84C588.034 151.84 586.016 151.758 584.16 151.596L584.062 151.742C584.811 152.784 585.365 153.956 585.723 155.258C586.113 156.527 586.309 157.862 586.309 159.262C586.309 161.931 585.641 164.34 584.307 166.488C583.005 168.637 581.068 170.329 578.496 171.566C575.957 172.803 572.865 173.422 569.219 173.422C566.484 173.52 564.417 174.024 563.018 174.936C561.65 175.847 560.967 177.344 560.967 179.428C560.967 180.958 561.455 182.13 562.432 182.943C563.441 183.757 564.694 184.327 566.191 184.652C567.689 184.978 569.772 185.287 572.441 185.58L574.98 185.873C577.682 186.231 579.945 186.719 581.768 187.338C583.59 187.956 585.088 188.982 586.26 190.414C587.464 191.846 588.066 193.816 588.066 196.322C588.066 200.521 586.39 203.744 583.037 205.99C579.684 208.269 574.769 209.408 568.291 209.408ZM569.219 167.66C572.409 167.66 574.948 167.009 576.836 165.707C578.724 164.405 579.668 162.273 579.668 159.311C579.668 153.712 576.185 150.912 569.219 150.912C562.35 150.912 558.916 153.712 558.916 159.311C558.916 162.273 559.844 164.405 561.699 165.707C563.587 167.009 566.094 167.66 569.219 167.66ZM569.219 203.5C573.255 203.5 576.25 202.963 578.203 201.889C580.156 200.847 581.133 199.252 581.133 197.104C581.133 195.704 580.612 194.613 579.57 193.832C578.529 193.083 577.243 192.546 575.713 192.221C574.215 191.928 572.23 191.651 569.756 191.391C568.063 191.195 566.663 191.016 565.557 190.854C564.482 190.691 563.49 190.463 562.578 190.17C558.737 191.798 556.816 194.158 556.816 197.25C556.816 201.417 560.951 203.5 569.219 203.5ZM605.107 191.146C603.87 191.146 602.975 191 602.422 190.707C601.868 190.382 601.592 189.893 601.592 189.242V158.773C601.592 154.997 601.413 152.279 601.055 150.619C600.697 148.926 600.518 147.999 600.518 147.836C600.518 147.12 601.055 146.615 602.129 146.322C603.236 145.997 604.277 145.834 605.254 145.834C606.035 145.834 606.621 146.257 607.012 147.104C607.402 147.917 607.744 149.073 608.037 150.57L608.281 151.596C611.374 147.266 614.727 145.102 618.34 145.102C620 145.102 621.253 145.411 622.1 146.029C622.946 146.615 623.369 147.413 623.369 148.422C623.369 149.398 623.19 150.44 622.832 151.547C622.507 152.621 622.116 153.158 621.66 153.158C621.432 153.158 621.025 153.061 620.439 152.865C619.919 152.637 619.398 152.475 618.877 152.377C618.356 152.247 617.689 152.182 616.875 152.182C615.54 152.182 614.271 152.572 613.066 153.354C611.895 154.135 610.902 154.997 610.088 155.941C609.274 156.885 608.867 157.406 608.867 157.504V189.242C608.867 189.893 608.59 190.382 608.037 190.707C607.484 191 606.621 191.146 605.449 191.146H605.107ZM651.592 191.488C644.398 191.488 639.043 189.617 635.527 185.873C632.044 182.097 630.303 176.335 630.303 168.588C630.303 160.906 632.012 155.079 635.43 151.107C638.848 147.104 643.877 145.102 650.518 145.102C656.442 145.102 660.902 147.022 663.896 150.863C666.924 154.704 668.438 160.336 668.438 167.758C668.438 168.083 668.258 168.539 667.9 169.125C667.575 169.678 667.168 170.183 666.68 170.639C666.224 171.062 665.833 171.273 665.508 171.273H638.115C638.473 176.124 639.71 179.672 641.826 181.918C643.975 184.132 647.197 185.238 651.494 185.238C653.903 185.238 655.97 184.945 657.695 184.359C659.453 183.773 661.146 183.057 662.773 182.211C662.936 182.146 663.18 182.032 663.506 181.869C663.831 181.706 664.059 181.625 664.189 181.625C664.548 181.625 664.954 181.918 665.41 182.504C665.898 183.057 666.305 183.692 666.631 184.408C666.989 185.092 667.168 185.596 667.168 185.922C667.168 186.638 666.452 187.436 665.02 188.314C663.587 189.193 661.667 189.942 659.258 190.561C656.882 191.179 654.326 191.488 651.592 191.488ZM660.674 165.023C660.674 155.909 657.207 151.352 650.273 151.352C642.819 151.352 638.766 155.909 638.115 165.023H660.674ZM689.238 191.83C686.797 191.83 684.518 191.521 682.402 190.902C680.286 190.284 678.594 189.535 677.324 188.656C676.087 187.745 675.469 186.947 675.469 186.264C675.469 185.938 675.632 185.417 675.957 184.701C676.315 183.985 676.722 183.35 677.178 182.797C677.666 182.211 678.105 181.918 678.496 181.918C678.594 181.918 678.887 182.081 679.375 182.406C680.677 183.253 682.044 183.969 683.477 184.555C684.941 185.141 686.683 185.434 688.701 185.434C694.365 185.434 697.197 183.09 697.197 178.402C697.197 177.068 696.921 175.945 696.367 175.033C695.846 174.122 694.951 173.324 693.682 172.641C692.445 171.924 690.736 171.241 688.555 170.59C685.43 169.678 682.988 168.637 681.23 167.465C679.505 166.293 678.285 164.926 677.568 163.363C676.852 161.768 676.494 159.848 676.494 157.602C676.494 155.193 677.096 153.028 678.301 151.107C679.538 149.187 681.247 147.689 683.428 146.615C685.641 145.541 688.132 145.004 690.898 145.004C692.819 145.004 694.658 145.183 696.416 145.541C698.206 145.899 699.639 146.371 700.713 146.957C701.82 147.51 702.373 148.096 702.373 148.715C702.373 149.171 702.21 149.789 701.885 150.57C701.592 151.319 701.217 151.986 700.762 152.572C700.306 153.126 699.899 153.402 699.541 153.402C699.476 153.402 699.069 153.207 698.32 152.816C697.572 152.393 696.611 152.019 695.439 151.693C694.3 151.335 693.031 151.156 691.631 151.156C689.417 151.156 687.578 151.661 686.113 152.67C684.681 153.646 683.965 154.965 683.965 156.625C683.965 158.578 684.486 160.141 685.527 161.312C686.569 162.484 688.294 163.445 690.703 164.193C694.414 165.333 697.246 166.472 699.199 167.611C701.152 168.751 702.536 170.15 703.35 171.811C704.196 173.438 704.619 175.587 704.619 178.256C704.619 180.795 703.936 183.106 702.568 185.189C701.201 187.24 699.346 188.868 697.002 190.072C694.658 191.244 692.07 191.83 689.238 191.83Z" fill="#323838"/>
<g filter="url(#filter1_d_1416_2180)">
<rect x="40" y="36" width="250" height="250" rx="40" fill="white"/>
</g>
<path d="M247.931 178.032C246.931 174.995 244.312 172.88 240.924 172.372C239.327 172.133 237.498 172.235 235.333 172.682C231.56 173.463 228.76 173.76 226.717 173.818C234.429 160.762 240.699 145.875 244.308 131.861C250.145 109.2 247.026 98.8767 243.381 94.2072C233.735 81.8477 219.662 75.2081 202.684 75.0049C193.627 74.8939 185.676 76.687 181.528 77.9766C177.666 77.2933 173.514 76.9118 169.157 76.8412C160.99 76.7106 153.774 78.4959 147.608 82.1652C144.194 81.0076 138.716 79.3758 132.389 78.3345C117.508 75.8848 105.515 77.7936 96.7428 84.008C86.1203 91.5322 81.1959 104.605 82.1067 122.863C82.3959 128.66 85.6297 146.298 90.7214 163.025C93.6477 172.64 96.7682 180.624 99.9961 186.758C104.574 195.456 109.472 200.578 114.971 202.418C118.053 203.447 123.653 204.168 129.543 199.249C130.289 200.156 131.285 201.057 132.607 201.894C134.286 202.955 136.339 203.823 138.389 204.337C145.777 206.189 152.697 205.726 158.601 203.13C158.638 204.183 158.666 205.189 158.689 206.058C158.728 207.467 158.767 208.848 158.819 210.14C159.169 218.877 159.761 225.67 161.518 230.423C161.614 230.684 161.744 231.083 161.881 231.506C162.757 234.196 164.222 238.699 167.949 242.226C171.809 245.88 176.478 247 180.754 247C182.899 247 184.945 246.718 186.74 246.332C193.137 244.957 200.403 242.863 205.659 235.358C210.628 228.264 213.043 217.579 213.481 200.743C213.537 200.266 213.589 199.812 213.639 199.379L213.744 198.489L214.914 198.592L215.216 198.612C221.732 198.91 229.699 197.525 234.592 195.246C238.458 193.446 250.848 186.887 247.931 178.032" fill="black"/>
<path d="M236.79 179.754C217.416 183.762 216.084 177.184 216.084 177.184C236.539 146.747 245.091 108.112 237.712 98.6559C217.579 72.8623 182.73 85.0611 182.148 85.3773L181.961 85.4113C178.133 84.6143 173.85 84.14 169.035 84.061C160.269 83.9173 153.619 86.3657 148.573 90.2029C148.573 90.2029 86.4053 64.5209 89.2971 122.502C89.912 134.837 106.928 215.834 127.223 191.369C134.641 182.423 141.809 174.859 141.809 174.859C145.369 177.23 149.63 178.44 154.098 178.006L154.445 177.711C154.337 178.821 154.387 179.907 154.584 181.194C149.356 187.051 150.892 188.08 140.44 190.237C129.864 192.423 136.077 196.314 140.134 197.332C145.051 198.564 156.428 200.311 164.115 189.52L163.809 190.751C165.857 192.397 167.296 201.454 167.055 209.664C166.814 217.874 166.653 223.511 168.266 227.914C169.881 232.317 171.49 242.224 185.23 239.272C196.711 236.804 202.66 230.411 203.488 219.746C204.075 212.164 205.405 213.285 205.488 206.506L206.555 203.298C207.784 193.02 206.75 189.704 213.823 191.247L215.543 191.398C220.748 191.635 227.562 190.558 231.561 188.694C240.172 184.687 245.28 177.996 236.789 179.754H236.79" fill="#336791"/>
<path d="M152.212 128.018C150.466 127.775 148.885 128 148.085 128.607C147.635 128.949 147.496 129.345 147.458 129.617C147.358 130.339 147.862 131.138 148.172 131.549C149.049 132.714 150.33 133.515 151.598 133.692C151.781 133.718 151.964 133.73 152.146 133.73C154.26 133.73 156.183 132.079 156.352 130.861C156.564 129.335 154.355 128.317 152.212 128.019V128.018ZM210.05 128.067C209.883 126.87 207.761 126.53 205.747 126.81C203.735 127.091 201.785 128.002 201.948 129.201C202.078 130.133 203.757 131.724 205.744 131.724C205.912 131.724 206.081 131.713 206.252 131.689C207.578 131.505 208.551 130.66 209.014 130.173C209.717 129.431 210.125 128.604 210.05 128.067" fill="white"/>
<path d="M243.238 179.298C242.499 177.058 240.121 176.337 236.171 177.155C224.441 179.583 220.241 177.901 218.862 176.883C227.979 162.955 235.479 146.12 239.525 130.412C241.441 122.972 242.5 116.062 242.587 110.429C242.682 104.248 241.632 99.7049 239.467 96.9299C230.736 85.743 217.922 79.7422 202.411 79.5776C191.748 79.4574 182.738 82.1938 180.991 82.9634C177.313 82.0462 173.304 81.4831 168.938 81.4112C160.933 81.2813 154.014 83.2031 148.285 87.1207C145.796 86.1918 139.365 83.9779 131.5 82.7073C117.903 80.5124 107.098 82.1756 99.3874 87.6531C90.187 94.1895 85.9395 105.874 86.7623 122.38C87.0392 127.933 90.1948 145.017 95.1745 161.378C101.729 182.912 108.855 195.102 116.352 197.61C117.229 197.903 118.241 198.108 119.357 198.108C122.092 198.108 125.445 196.872 128.933 192.667C133.188 187.548 137.59 182.554 142.132 177.69C145.08 179.276 148.317 180.162 151.629 180.251C151.635 180.338 151.644 180.425 151.651 180.511C151.081 181.193 150.523 181.884 149.977 182.585C147.683 185.506 147.205 186.114 139.82 187.639C137.719 188.074 132.139 189.227 132.057 193.149C131.968 197.434 138.653 199.234 139.415 199.425C142.069 200.091 144.625 200.419 147.064 200.419C152.994 200.419 158.213 198.465 162.383 194.683C162.255 209.96 162.89 225.014 164.719 229.6C166.218 233.355 169.878 242.531 181.438 242.531C183.135 242.531 185.002 242.333 187.056 241.891C199.121 239.298 204.361 233.95 206.388 222.161C207.472 215.86 209.333 200.815 210.209 192.745C212.056 193.323 214.435 193.588 217.006 193.587C222.369 193.587 228.557 192.445 232.438 190.638C236.797 188.608 244.664 183.626 243.238 179.298V179.298ZM214.505 124.764C214.465 127.147 214.138 129.31 213.791 131.567C213.418 133.995 213.032 136.506 212.935 139.553C212.84 142.519 213.209 145.602 213.566 148.585C214.288 154.608 215.028 160.808 212.161 166.927C211.685 166.08 211.261 165.206 210.891 164.308C210.535 163.441 209.761 162.05 208.689 160.124C204.521 152.628 194.759 135.072 199.756 127.908C201.244 125.776 205.022 123.584 214.505 124.764V124.764ZM203.01 84.4018C216.908 84.7095 227.902 89.9231 235.686 99.897C241.656 107.547 235.082 142.357 216.051 172.388C215.86 172.144 215.667 171.9 215.474 171.658L215.233 171.356C220.151 163.212 219.189 155.154 218.333 148.01C217.981 145.079 217.649 142.309 217.734 139.708C217.821 136.951 218.185 134.587 218.536 132.3C218.968 129.483 219.408 126.567 219.287 123.131C219.377 122.77 219.414 122.344 219.366 121.838C219.057 118.543 215.305 108.679 207.657 99.752C203.473 94.8689 197.372 89.4044 189.042 85.7188C192.625 84.9741 197.525 84.2797 203.01 84.4018V84.4018ZM125.242 189.589C121.398 194.223 118.744 193.334 117.871 193.043C112.184 191.141 105.585 179.087 99.7666 159.973C94.7322 143.434 91.7902 126.802 91.557 122.139C90.8222 107.39 94.3875 97.1109 102.155 91.587C114.796 82.5982 135.578 87.9784 143.929 90.707C143.809 90.8259 143.684 90.937 143.566 91.0578C129.862 104.936 130.187 128.646 130.221 130.096C130.219 130.655 130.266 131.446 130.33 132.535C130.566 136.524 131.005 143.946 129.832 152.351C128.743 160.162 131.144 167.807 136.419 173.326C136.96 173.892 137.529 174.43 138.124 174.939C135.776 177.46 130.673 183.036 125.242 189.589V189.589ZM139.886 169.996C135.634 165.547 133.703 159.359 134.587 153.018C135.825 144.138 135.368 136.405 135.123 132.251C135.088 131.669 135.058 131.16 135.04 130.758C137.042 128.978 146.319 123.994 152.935 125.514C155.954 126.207 157.794 128.268 158.559 131.814C162.517 150.173 159.082 157.824 156.323 163.973C155.754 165.24 155.217 166.437 154.758 167.676L154.402 168.634C153.502 171.054 152.664 173.306 152.145 175.443C147.625 175.43 143.229 173.494 139.886 169.995V169.996ZM140.579 194.754C139.259 194.423 138.073 193.849 137.376 193.373C137.958 193.098 138.993 192.725 140.788 192.354C149.477 190.561 150.819 189.295 153.749 185.564C154.421 184.708 155.182 183.739 156.237 182.558L156.238 182.556C157.809 180.792 158.527 181.092 159.83 181.634C160.886 182.072 161.915 183.399 162.332 184.86C162.529 185.549 162.751 186.859 162.026 187.878C155.905 196.472 146.985 196.361 140.579 194.754V194.754ZM186.05 237.184C175.421 239.468 171.657 234.029 169.177 227.812C167.577 223.799 166.79 205.7 167.348 185.712C167.355 185.446 167.317 185.19 167.244 184.948C167.179 184.471 167.08 183.999 166.947 183.535C166.117 180.627 164.095 178.195 161.668 177.186C160.704 176.785 158.935 176.051 156.808 176.596C157.262 174.722 158.048 172.607 158.901 170.316L159.258 169.352C159.661 168.266 160.166 167.14 160.701 165.949C163.589 159.515 167.544 150.704 163.251 130.797C161.643 123.341 156.274 119.7 148.135 120.546C143.255 121.052 138.791 123.026 136.564 124.158C136.086 124.401 135.648 124.636 135.239 124.865C135.86 117.353 138.208 103.313 146.991 94.4299C152.521 88.8381 159.886 86.0761 168.859 86.2251C186.539 86.5151 197.877 95.6136 204.276 103.196C209.789 109.729 212.775 116.311 213.967 119.86C205.006 118.946 198.912 120.72 195.822 125.149C189.101 134.783 199.499 153.482 204.496 162.469C205.413 164.116 206.204 165.539 206.453 166.144C208.08 170.099 210.187 172.739 211.725 174.666C212.197 175.257 212.654 175.83 213.002 176.33C210.288 177.115 205.413 178.927 205.857 187.989C205.499 192.535 202.951 213.822 201.657 221.343C199.948 231.279 196.302 234.98 186.05 237.184V237.184ZM230.416 186.272C227.641 187.563 222.997 188.532 218.585 188.741C213.712 188.969 211.232 188.193 210.648 187.716C210.374 182.069 212.47 181.479 214.688 180.855C215.037 180.757 215.377 180.661 215.705 180.546C215.909 180.712 216.133 180.877 216.378 181.039C220.294 183.632 227.28 183.911 237.142 181.87L237.25 181.848C235.92 183.095 233.644 184.769 230.416 186.272Z" fill="white"/>
<defs>
<filter id="filter0_di_1416_2180" x="36" y="36" width="768" height="258" filterUnits="userSpaceOnUse" color-interpolation-filters="sRGB">
<feFlood flood-opacity="0" result="BackgroundImageFix"/>
<feColorMatrix in="SourceAlpha" type="matrix" values="0 0 0 0 0 0 0 0 0 0 0 0 0 0 0 0 0 0 127 0" result="hardAlpha"/>
<feOffset dy="4"/>
<feGaussianBlur stdDeviation="2"/>
<feComposite in2="hardAlpha" operator="out"/>
<feColorMatrix type="matrix" values="0 0 0 0 0 0 0 0 0 0 0 0 0 0 0 0 0 0 0.25 0"/>
<feBlend mode="normal" in2="BackgroundImageFix" result="effect1_dropShadow_1416_2180"/>
<feBlend mode="normal" in="SourceGraphic" in2="effect1_dropShadow_1416_2180" result="shape"/>
<feColorMatrix in="SourceAlpha" type="matrix" values="0 0 0 0 0 0 0 0 0 0 0 0 0 0 0 0 0 0 127 0" result="hardAlpha"/>
<feOffset dy="4"/>
<feGaussianBlur stdDeviation="20"/>
<feComposite in2="hardAlpha" operator="arithmetic" k2="-1" k3="1"/>
<feColorMatrix type="matrix" values="0 0 0 0 0 0 0 0 0 0 0 0 0 0 0 0 0 0 0.25 0"/>
<feBlend mode="normal" in2="shape" result="effect2_innerShadow_1416_2180"/>
</filter>
<filter id="filter1_d_1416_2180" x="0" y="0" width="330" height="330" filterUnits="userSpaceOnUse" color-interpolation-filters="sRGB">
<feFlood flood-opacity="0" result="BackgroundImageFix"/>
<feColorMatrix in="SourceAlpha" type="matrix" values="0 0 0 0 0 0 0 0 0 0 0 0 0 0 0 0 0 0 127 0" result="hardAlpha"/>
<feOffset dy="4"/>
<feGaussianBlur stdDeviation="20"/>
<feComposite in2="hardAlpha" operator="out"/>
<feColorMatrix type="matrix" values="0 0 0 0 0 0 0 0 0 0 0 0 0 0 0 0 0 0 0.25 0"/>
<feBlend mode="normal" in2="BackgroundImageFix" result="effect1_dropShadow_1416_2180"/>
<feBlend mode="normal" in="SourceGraphic" in2="effect1_dropShadow_1416_2180" result="shape"/>
</filter>
</defs>
</svg>
