<svg width="804" height="330" viewBox="0 0 804 330" fill="none" xmlns="http://www.w3.org/2000/svg">
<g filter="url(#filter0_di_1410_2026)">
<rect x="40" y="36" width="760" height="250" rx="40" fill="white"/>
</g>
<g filter="url(#filter1_d_1410_2026)">
<rect x="40" y="36" width="250" height="250" rx="40" fill="white"/>
</g>
<path d="M164.877 75C120.958 75 123.701 94.0455 123.701 94.0455L123.749 113.777H165.66V119.701H107.103C107.103 119.701 79 116.514 79 160.827C79 205.142 103.529 203.57 103.529 203.57H118.168V183.006C118.168 183.006 117.379 158.477 142.306 158.477H183.874C183.874 158.477 207.227 158.855 207.227 135.906V97.963C207.227 97.963 210.774 75 164.877 75ZM141.767 88.2692C142.758 88.2683 143.739 88.4627 144.654 88.8413C145.569 89.2199 146.4 89.7752 147.101 90.4755C147.801 91.1758 148.356 92.0074 148.735 92.9225C149.113 93.8377 149.308 94.8185 149.307 95.8089C149.308 96.7992 149.113 97.7801 148.735 98.6952C148.356 99.6104 147.801 100.442 147.101 101.142C146.4 101.842 145.569 102.398 144.654 102.776C143.739 103.155 142.758 103.349 141.767 103.348C140.777 103.349 139.796 103.155 138.881 102.776C137.966 102.398 137.134 101.842 136.434 101.142C135.734 100.442 135.178 99.6104 134.8 98.6952C134.421 97.7801 134.227 96.7992 134.228 95.8089C134.227 94.8185 134.421 93.8377 134.8 92.9225C135.178 92.0074 135.734 91.1758 136.434 90.4755C137.134 89.7752 137.966 89.2199 138.881 88.8413C139.796 88.4627 140.777 88.2683 141.767 88.2692V88.2692Z" fill="url(#paint0_linear_1410_2026)"/>
<path d="M166.124 247.101C210.042 247.101 207.3 228.056 207.3 228.056L207.251 208.324H165.34V202.4H223.897C223.897 202.4 252 205.588 252 161.273C252 116.959 227.471 118.531 227.471 118.531H212.832V139.094C212.832 139.094 213.621 163.623 188.694 163.623H147.126C147.126 163.623 123.773 163.246 123.773 186.195V224.139C123.773 224.139 120.226 247.101 166.123 247.101H166.124ZM189.233 233.833C188.243 233.834 187.262 233.64 186.347 233.261C185.432 232.883 184.6 232.327 183.9 231.627C183.2 230.927 182.644 230.095 182.266 229.18C181.887 228.265 181.693 227.284 181.694 226.294C181.693 225.303 181.887 224.322 182.266 223.407C182.644 222.492 183.199 221.66 183.9 220.96C184.6 220.259 185.432 219.704 186.347 219.325C187.262 218.947 188.243 218.752 189.233 218.753C190.224 218.752 191.204 218.947 192.12 219.325C193.035 219.704 193.866 220.259 194.567 220.96C195.267 221.66 195.822 222.491 196.201 223.407C196.579 224.322 196.774 225.303 196.773 226.293C196.774 227.283 196.579 228.264 196.201 229.179C195.822 230.094 195.267 230.926 194.567 231.626C193.866 232.327 193.035 232.882 192.12 233.26C191.204 233.639 190.224 233.833 189.233 233.833V233.833Z" fill="url(#paint1_linear_1410_2026)"/>
<path d="M421.855 191.146C420.651 191.146 419.772 191 419.219 190.707C418.698 190.382 418.438 189.893 418.438 189.242V132.846C418.438 131.902 418.633 131.234 419.023 130.844C419.447 130.453 420.114 130.258 421.025 130.258H438.604C443.682 130.258 448.174 131.479 452.08 133.92C456.019 136.329 457.988 140.772 457.988 147.25C457.988 152.068 456.865 155.811 454.619 158.48C452.373 161.117 449.85 162.891 447.051 163.803C444.251 164.682 441.729 165.121 439.482 165.121H426.006V189.242C426.006 189.893 425.729 190.382 425.176 190.707C424.622 191 423.76 191.146 422.588 191.146H421.855ZM439.58 158.529C441.045 158.529 442.575 158.22 444.17 157.602C445.765 156.951 447.148 155.795 448.32 154.135C449.492 152.442 450.078 150.147 450.078 147.25C450.078 143.376 448.923 140.674 446.611 139.145C444.333 137.615 441.582 136.85 438.359 136.85H426.006V158.529H439.58ZM472.686 209.066C470.798 209.066 469.854 208.594 469.854 207.65C469.854 207.423 469.984 206.951 470.244 206.234L477.52 188.559L462.334 148.031C462.301 147.901 462.253 147.722 462.188 147.494C462.122 147.234 462.09 147.038 462.09 146.908C462.09 146.452 462.399 146.094 463.018 145.834C463.636 145.574 464.58 145.443 465.85 145.443H466.533C468.486 145.443 469.642 145.899 470 146.811L478.838 170.346C479.619 172.396 480.547 175.31 481.621 179.086H481.768L482.793 175.863C482.956 175.375 483.232 174.545 483.623 173.373C484.014 172.169 484.372 171.16 484.697 170.346L493.34 146.811C493.633 145.899 494.821 145.443 496.904 145.443H497.197C499.476 145.443 500.615 145.932 500.615 146.908C500.615 147.136 500.534 147.527 500.371 148.08L478.105 207.26C477.585 208.464 476.217 209.066 474.004 209.066H472.686ZM522.832 191.488C519.935 191.488 517.347 190.609 515.068 188.852C512.79 187.094 511.65 183.985 511.65 179.525V151.84H507.305C506.686 151.84 506.23 151.645 505.938 151.254C505.677 150.831 505.547 150.163 505.547 149.252V148.178C505.547 147.266 505.677 146.615 505.938 146.225C506.23 145.801 506.686 145.59 507.305 145.59H511.65L512.676 136.508C512.741 135.238 513.669 134.604 515.459 134.604H516.289C517.201 134.604 517.868 134.766 518.291 135.092C518.714 135.385 518.926 135.857 518.926 136.508V145.59H526.201C526.82 145.59 527.259 145.801 527.52 146.225C527.812 146.615 527.959 147.266 527.959 148.178V149.252C527.959 150.163 527.812 150.831 527.52 151.254C527.259 151.645 526.82 151.84 526.201 151.84H518.926V178.842C518.926 181.218 519.333 182.878 520.146 183.822C520.993 184.766 522.132 185.238 523.564 185.238C524.671 185.238 525.518 185.173 526.104 185.043C526.722 184.913 527.129 184.848 527.324 184.848C527.845 184.848 528.268 185.368 528.594 186.41C528.952 187.452 529.131 188.282 529.131 188.9C529.131 190.626 527.031 191.488 522.832 191.488ZM543.584 191.146C541.273 191.146 540.117 190.512 540.117 189.242V127.621C540.117 126.352 541.273 125.717 543.584 125.717H543.926C546.27 125.717 547.441 126.352 547.441 127.621V151.059C549.134 149.333 551.12 147.917 553.398 146.811C555.677 145.671 558.102 145.102 560.674 145.102C564.32 145.102 567.526 146.127 570.293 148.178C573.092 150.229 574.492 153.874 574.492 159.115V189.242C574.492 190.512 573.337 191.146 571.025 191.146H570.684C568.34 191.146 567.168 190.512 567.168 189.242V159.848C567.168 157.211 566.419 155.144 564.922 153.646C563.424 152.149 561.227 151.4 558.33 151.4C556.41 151.4 554.635 151.856 553.008 152.768C551.413 153.679 550.078 154.672 549.004 155.746C547.962 156.788 547.441 157.374 547.441 157.504V189.242C547.441 190.512 546.27 191.146 543.926 191.146H543.584ZM606.133 191.488C599.59 191.488 594.593 189.535 591.143 185.629C587.725 181.69 586.016 175.977 586.016 168.49C586.016 161.003 587.757 155.242 591.24 151.205C594.723 147.136 599.688 145.102 606.133 145.102C612.513 145.102 617.396 147.12 620.781 151.156C624.167 155.16 625.859 160.938 625.859 168.49C625.859 176.01 624.183 181.723 620.83 185.629C617.51 189.535 612.611 191.488 606.133 191.488ZM605.889 185.238C610.12 185.238 613.245 183.871 615.264 181.137C617.282 178.37 618.291 174.105 618.291 168.344C618.291 162.549 617.282 158.269 615.264 155.502C613.245 152.735 610.12 151.352 605.889 151.352C601.689 151.352 598.597 152.735 596.611 155.502C594.626 158.236 593.633 162.517 593.633 168.344C593.633 174.138 594.609 178.402 596.562 181.137C598.548 183.871 601.657 185.238 605.889 185.238ZM641.631 191.146C640.394 191.146 639.499 191 638.945 190.707C638.392 190.382 638.115 189.893 638.115 189.242V158.773C638.115 154.997 637.936 152.279 637.578 150.619C637.22 148.926 637.041 147.999 637.041 147.836C637.041 147.12 637.578 146.615 638.652 146.322C639.759 145.997 640.801 145.834 641.777 145.834C642.591 145.834 643.193 146.273 643.584 147.152C643.975 148.031 644.251 148.926 644.414 149.838C644.609 150.749 644.74 151.335 644.805 151.596C646.628 149.545 648.727 147.95 651.104 146.811C653.512 145.671 655.938 145.102 658.379 145.102C662.806 145.102 666.257 146.355 668.73 148.861C671.237 151.335 672.49 154.753 672.49 159.115V189.242C672.49 189.893 672.214 190.382 671.66 190.707C671.107 191 670.228 191.146 669.023 191.146H668.633C667.461 191.146 666.598 191 666.045 190.707C665.492 190.382 665.215 189.893 665.215 189.242V159.848C665.215 157.178 664.434 155.111 662.871 153.646C661.341 152.149 659.176 151.4 656.377 151.4C654.424 151.4 652.454 151.954 650.469 153.061C648.516 154.135 646.823 155.616 645.391 157.504V189.242C645.391 189.893 645.114 190.382 644.561 190.707C644.007 191 643.145 191.146 641.973 191.146H641.631Z" fill="#323838"/>
<defs>
<filter id="filter0_di_1410_2026" x="36" y="36" width="768" height="258" filterUnits="userSpaceOnUse" color-interpolation-filters="sRGB">
<feFlood flood-opacity="0" result="BackgroundImageFix"/>
<feColorMatrix in="SourceAlpha" type="matrix" values="0 0 0 0 0 0 0 0 0 0 0 0 0 0 0 0 0 0 127 0" result="hardAlpha"/>
<feOffset dy="4"/>
<feGaussianBlur stdDeviation="2"/>
<feComposite in2="hardAlpha" operator="out"/>
<feColorMatrix type="matrix" values="0 0 0 0 0 0 0 0 0 0 0 0 0 0 0 0 0 0 0.25 0"/>
<feBlend mode="normal" in2="BackgroundImageFix" result="effect1_dropShadow_1410_2026"/>
<feBlend mode="normal" in="SourceGraphic" in2="effect1_dropShadow_1410_2026" result="shape"/>
<feColorMatrix in="SourceAlpha" type="matrix" values="0 0 0 0 0 0 0 0 0 0 0 0 0 0 0 0 0 0 127 0" result="hardAlpha"/>
<feOffset dy="4"/>
<feGaussianBlur stdDeviation="20"/>
<feComposite in2="hardAlpha" operator="arithmetic" k2="-1" k3="1"/>
<feColorMatrix type="matrix" values="0 0 0 0 0 0 0 0 0 0 0 0 0 0 0 0 0 0 0.25 0"/>
<feBlend mode="normal" in2="shape" result="effect2_innerShadow_1410_2026"/>
</filter>
<filter id="filter1_d_1410_2026" x="0" y="0" width="330" height="330" filterUnits="userSpaceOnUse" color-interpolation-filters="sRGB">
<feFlood flood-opacity="0" result="BackgroundImageFix"/>
<feColorMatrix in="SourceAlpha" type="matrix" values="0 0 0 0 0 0 0 0 0 0 0 0 0 0 0 0 0 0 127 0" result="hardAlpha"/>
<feOffset dy="4"/>
<feGaussianBlur stdDeviation="20"/>
<feComposite in2="hardAlpha" operator="out"/>
<feColorMatrix type="matrix" values="0 0 0 0 0 0 0 0 0 0 0 0 0 0 0 0 0 0 0.25 0"/>
<feBlend mode="normal" in2="BackgroundImageFix" result="effect1_dropShadow_1410_2026"/>
<feBlend mode="normal" in="SourceGraphic" in2="effect1_dropShadow_1410_2026" result="shape"/>
</filter>
<linearGradient id="paint0_linear_1410_2026" x1="95.6252" y1="90.4794" x2="181.359" y2="175.358" gradientUnits="userSpaceOnUse">
<stop stop-color="#387EB8"/>
<stop offset="1" stop-color="#366994"/>
</linearGradient>
<linearGradient id="paint1_linear_1410_2026" x1="148.248" y1="144.984" x2="240.316" y2="232.019" gradientUnits="userSpaceOnUse">
<stop stop-color="#FFE052"/>
<stop offset="1" stop-color="#FFC331"/>
</linearGradient>
</defs>
</svg>
