<svg width="808" height="330" viewBox="0 0 808 330" fill="none" xmlns="http://www.w3.org/2000/svg">
<g filter="url(#filter0_di_1416_2178)">
<rect x="44" y="36" width="760" height="250" rx="40" fill="white"/>
</g>
<path d="M456.959 191.146C454.615 191.146 453.443 190.512 453.443 189.242V132.846C453.443 131.934 453.655 131.283 454.078 130.893C454.501 130.469 455.169 130.258 456.08 130.258H470.68C477.613 130.258 482.822 131.479 486.305 133.92C489.82 136.361 491.578 140.251 491.578 145.59C491.578 149.203 490.699 152.247 488.941 154.721C487.216 157.162 484.775 159.001 481.617 160.238V160.58C483.31 161.166 484.693 162.305 485.768 163.998C486.874 165.658 488.095 168.132 489.43 171.42L496.217 188.559C496.38 189.145 496.461 189.551 496.461 189.779C496.461 190.691 495.24 191.146 492.799 191.146H491.92C491.041 191.146 490.276 191.033 489.625 190.805C489.007 190.544 488.616 190.202 488.453 189.779L481.861 172.738C481.015 170.525 480.022 168.799 478.883 167.562C477.743 166.326 476.393 165.463 474.83 164.975C473.268 164.486 471.298 164.242 468.922 164.242H461.109V189.242C461.109 190.512 459.954 191.146 457.643 191.146H456.959ZM472.535 157.65C474.586 157.65 476.458 157.162 478.15 156.186C479.876 155.209 481.227 153.907 482.203 152.279C483.212 150.619 483.717 148.861 483.717 147.006C483.717 143.588 482.675 141.049 480.592 139.389C478.508 137.696 475.628 136.85 471.949 136.85H461.109V157.65H472.535ZM524.146 191.488C516.952 191.488 511.598 189.617 508.082 185.873C504.599 182.097 502.857 176.335 502.857 168.588C502.857 160.906 504.566 155.079 507.984 151.107C511.402 147.104 516.432 145.102 523.072 145.102C528.997 145.102 533.456 147.022 536.451 150.863C539.479 154.704 540.992 160.336 540.992 167.758C540.992 168.083 540.813 168.539 540.455 169.125C540.13 169.678 539.723 170.183 539.234 170.639C538.779 171.062 538.388 171.273 538.062 171.273H510.67C511.028 176.124 512.265 179.672 514.381 181.918C516.529 184.132 519.752 185.238 524.049 185.238C526.458 185.238 528.525 184.945 530.25 184.359C532.008 183.773 533.701 183.057 535.328 182.211C535.491 182.146 535.735 182.032 536.061 181.869C536.386 181.706 536.614 181.625 536.744 181.625C537.102 181.625 537.509 181.918 537.965 182.504C538.453 183.057 538.86 183.692 539.186 184.408C539.544 185.092 539.723 185.596 539.723 185.922C539.723 186.638 539.007 187.436 537.574 188.314C536.142 189.193 534.221 189.942 531.812 190.561C529.436 191.179 526.881 191.488 524.146 191.488ZM533.229 165.023C533.229 155.909 529.762 151.352 522.828 151.352C515.374 151.352 511.321 155.909 510.67 165.023H533.229ZM566.285 191.488C562.9 191.488 559.938 190.512 557.398 188.559C554.859 186.573 552.89 183.822 551.49 180.307C550.123 176.791 549.439 172.803 549.439 168.344C549.439 163.428 550.172 159.229 551.637 155.746C553.134 152.23 555.217 149.577 557.887 147.787C560.556 145.997 563.632 145.102 567.115 145.102C569.622 145.102 571.835 145.476 573.756 146.225C575.709 146.973 577.63 148.064 579.518 149.496V127.621C579.518 126.352 580.657 125.717 582.936 125.717H583.326C585.637 125.717 586.793 126.352 586.793 127.621V178.158C586.793 181.934 586.972 184.669 587.33 186.361C587.688 188.021 587.867 188.933 587.867 189.096C587.867 189.812 587.314 190.333 586.207 190.658C585.133 190.951 584.124 191.098 583.18 191.098C582.529 191.098 582.008 190.788 581.617 190.17C581.227 189.551 580.95 188.933 580.787 188.314C580.657 187.663 580.429 186.557 580.104 184.994C575.969 189.324 571.363 191.488 566.285 191.488ZM567.799 185.189C569.719 185.189 571.705 184.669 573.756 183.627C575.839 182.585 577.76 181.104 579.518 179.184V155.404C576.393 152.8 572.828 151.498 568.824 151.498C564.951 151.596 562.021 153.012 560.035 155.746C558.082 158.48 557.105 162.452 557.105 167.66C557.105 173.259 558.017 177.589 559.84 180.648C561.695 183.676 564.348 185.189 567.799 185.189ZM605.104 134.652C602.792 134.652 601.637 134.018 601.637 132.748V127.621C601.637 126.352 602.792 125.717 605.104 125.717H606.129C608.473 125.717 609.645 126.352 609.645 127.621V132.748C609.645 134.018 608.473 134.652 606.129 134.652H605.104ZM605.445 191.146C603.134 191.146 601.979 190.512 601.979 189.242V147.348C601.979 146.078 603.134 145.443 605.445 145.443H605.787C608.131 145.443 609.303 146.078 609.303 147.348V189.242C609.303 190.512 608.131 191.146 605.787 191.146H605.445ZM633.961 191.83C631.52 191.83 629.241 191.521 627.125 190.902C625.009 190.284 623.316 189.535 622.047 188.656C620.81 187.745 620.191 186.947 620.191 186.264C620.191 185.938 620.354 185.417 620.68 184.701C621.038 183.985 621.445 183.35 621.9 182.797C622.389 182.211 622.828 181.918 623.219 181.918C623.316 181.918 623.609 182.081 624.098 182.406C625.4 183.253 626.767 183.969 628.199 184.555C629.664 185.141 631.406 185.434 633.424 185.434C639.088 185.434 641.92 183.09 641.92 178.402C641.92 177.068 641.643 175.945 641.09 175.033C640.569 174.122 639.674 173.324 638.404 172.641C637.167 171.924 635.458 171.241 633.277 170.59C630.152 169.678 627.711 168.637 625.953 167.465C624.228 166.293 623.007 164.926 622.291 163.363C621.575 161.768 621.217 159.848 621.217 157.602C621.217 155.193 621.819 153.028 623.023 151.107C624.26 149.187 625.969 147.689 628.15 146.615C630.364 145.541 632.854 145.004 635.621 145.004C637.542 145.004 639.381 145.183 641.139 145.541C642.929 145.899 644.361 146.371 645.436 146.957C646.542 147.51 647.096 148.096 647.096 148.715C647.096 149.171 646.933 149.789 646.607 150.57C646.314 151.319 645.94 151.986 645.484 152.572C645.029 153.126 644.622 153.402 644.264 153.402C644.199 153.402 643.792 153.207 643.043 152.816C642.294 152.393 641.334 152.019 640.162 151.693C639.023 151.335 637.753 151.156 636.354 151.156C634.14 151.156 632.301 151.661 630.836 152.67C629.404 153.646 628.688 154.965 628.688 156.625C628.688 158.578 629.208 160.141 630.25 161.312C631.292 162.484 633.017 163.445 635.426 164.193C639.137 165.333 641.969 166.472 643.922 167.611C645.875 168.751 647.258 170.15 648.072 171.811C648.919 173.438 649.342 175.587 649.342 178.256C649.342 180.795 648.658 183.106 647.291 185.189C645.924 187.24 644.068 188.868 641.725 190.072C639.381 191.244 636.793 191.83 633.961 191.83Z" fill="#323838"/>
<g filter="url(#filter1_d_1416_2178)">
<rect x="40" y="36" width="250" height="250" rx="40" fill="white"/>
</g>
<path d="M243.724 200.748C234.574 205.517 187.179 225.004 177.089 230.265C166.999 235.526 161.393 235.475 153.422 231.665C145.451 227.854 95.0143 207.481 85.9286 203.138C81.3881 200.968 79 199.136 79 197.405V180.076C79 180.076 144.663 165.782 155.264 161.979C165.864 158.175 169.541 158.038 178.562 161.342C187.584 164.648 241.525 174.38 250.441 177.645L250.437 194.729C250.438 196.442 248.381 198.321 243.724 200.748" fill="#912626"/>
<path d="M243.72 183.521C234.572 188.288 187.178 207.776 177.087 213.036C166.998 218.298 161.393 218.246 153.422 214.436C145.451 210.628 95.0155 190.251 85.9305 185.911C76.8455 181.568 76.6553 178.579 85.5796 175.085C94.5038 171.589 144.662 151.91 155.264 148.107C165.864 144.305 169.541 144.166 178.562 147.472C187.583 150.776 234.695 169.528 243.609 172.793C252.527 176.062 252.869 178.753 243.72 183.521" fill="#C6302B"/>
<path d="M243.724 172.709C234.574 177.479 187.179 196.965 177.089 202.228C166.999 207.487 161.393 207.436 153.422 203.626C145.451 199.817 95.0143 179.442 85.9286 175.099C81.3881 172.929 79 171.099 79 169.368V152.037C79 152.037 144.663 137.743 155.264 133.94C165.864 130.137 169.541 129.999 178.562 133.304C187.585 136.609 241.526 146.339 250.441 149.605L250.437 166.691C250.438 168.403 248.381 170.282 243.724 172.709Z" fill="#912626"/>
<path d="M243.72 155.483C234.572 160.251 187.178 179.738 177.087 185C166.998 190.259 161.393 190.208 153.422 186.397C145.451 182.589 95.0155 162.213 85.9305 157.872C76.8455 153.531 76.6553 150.541 85.5796 147.046C94.5038 143.552 144.663 123.872 155.264 120.069C165.864 116.267 169.541 116.129 178.562 119.434C187.583 122.738 234.695 141.488 243.609 144.755C252.527 148.023 252.869 150.715 243.72 155.483" fill="#C6302B"/>
<path d="M243.724 143.63C234.574 148.399 187.179 167.887 177.089 173.149C166.999 178.409 161.393 178.357 153.422 174.547C145.451 170.738 95.0143 150.362 85.9286 146.021C81.3881 143.849 79 142.019 79 140.29V122.958C79 122.958 144.663 108.665 155.264 104.863C165.864 101.059 169.541 100.922 178.562 104.226C187.585 107.531 241.526 117.261 250.441 120.527L250.437 137.613C250.438 139.324 248.381 141.203 243.724 143.63Z" fill="#912626"/>
<path d="M243.72 126.404C234.571 131.172 187.177 150.66 177.087 155.92C166.997 161.18 161.392 161.128 153.422 157.32C145.451 153.509 95.0152 133.134 85.9308 128.793C76.8451 124.452 76.6556 121.462 85.5792 117.967C94.5035 114.472 144.663 94.7947 155.264 90.9908C165.864 87.1877 169.541 87.051 178.562 90.356C187.583 93.6609 234.694 112.412 243.609 115.678C252.526 118.943 252.868 121.636 243.72 126.404" fill="#C6302B"/>
<path d="M185.671 109.546L170.931 111.076L167.631 119.016L162.302 110.156L145.282 108.626L157.982 104.046L154.171 97.0156L166.062 101.666L177.271 97.996L174.241 105.266L185.671 109.546V109.546ZM166.751 148.065L139.242 136.655L178.66 130.605L166.751 148.065V148.065ZM128.612 113.959C140.248 113.959 149.681 117.615 149.681 122.125C149.681 126.636 140.248 130.292 128.612 130.292C116.977 130.292 107.544 126.635 107.544 122.125C107.544 117.615 116.977 113.959 128.612 113.959Z" fill="white"/>
<path d="M203.09 111.716L226.419 120.935L203.11 130.145L203.09 111.715" fill="#621B1C"/>
<path d="M177.28 121.927L203.09 111.717L203.11 130.147L200.579 131.136L177.28 121.927Z" fill="#9A2928"/>
<defs>
<filter id="filter0_di_1416_2178" x="40" y="36" width="768" height="258" filterUnits="userSpaceOnUse" color-interpolation-filters="sRGB">
<feFlood flood-opacity="0" result="BackgroundImageFix"/>
<feColorMatrix in="SourceAlpha" type="matrix" values="0 0 0 0 0 0 0 0 0 0 0 0 0 0 0 0 0 0 127 0" result="hardAlpha"/>
<feOffset dy="4"/>
<feGaussianBlur stdDeviation="2"/>
<feComposite in2="hardAlpha" operator="out"/>
<feColorMatrix type="matrix" values="0 0 0 0 0 0 0 0 0 0 0 0 0 0 0 0 0 0 0.25 0"/>
<feBlend mode="normal" in2="BackgroundImageFix" result="effect1_dropShadow_1416_2178"/>
<feBlend mode="normal" in="SourceGraphic" in2="effect1_dropShadow_1416_2178" result="shape"/>
<feColorMatrix in="SourceAlpha" type="matrix" values="0 0 0 0 0 0 0 0 0 0 0 0 0 0 0 0 0 0 127 0" result="hardAlpha"/>
<feOffset dy="4"/>
<feGaussianBlur stdDeviation="20"/>
<feComposite in2="hardAlpha" operator="arithmetic" k2="-1" k3="1"/>
<feColorMatrix type="matrix" values="0 0 0 0 0 0 0 0 0 0 0 0 0 0 0 0 0 0 0.25 0"/>
<feBlend mode="normal" in2="shape" result="effect2_innerShadow_1416_2178"/>
</filter>
<filter id="filter1_d_1416_2178" x="0" y="0" width="330" height="330" filterUnits="userSpaceOnUse" color-interpolation-filters="sRGB">
<feFlood flood-opacity="0" result="BackgroundImageFix"/>
<feColorMatrix in="SourceAlpha" type="matrix" values="0 0 0 0 0 0 0 0 0 0 0 0 0 0 0 0 0 0 127 0" result="hardAlpha"/>
<feOffset dy="4"/>
<feGaussianBlur stdDeviation="20"/>
<feComposite in2="hardAlpha" operator="out"/>
<feColorMatrix type="matrix" values="0 0 0 0 0 0 0 0 0 0 0 0 0 0 0 0 0 0 0.25 0"/>
<feBlend mode="normal" in2="BackgroundImageFix" result="effect1_dropShadow_1416_2178"/>
<feBlend mode="normal" in="SourceGraphic" in2="effect1_dropShadow_1416_2178" result="shape"/>
</filter>
</defs>
</svg>
