<svg width="804" height="330" viewBox="0 0 804 330" fill="none" xmlns="http://www.w3.org/2000/svg">
<g filter="url(#filter0_di_1410_2026)">
<rect x="40" y="36" width="760" height="250" rx="40" fill="white"/>
</g>
<g filter="url(#filter1_d_1410_2026)">
<rect x="40" y="36" width="250" height="250" rx="40" fill="white"/>
</g>
<path d="M164.877 75C120.958 75 123.701 94.0455 123.701 94.0455L123.749 113.777H165.66V119.701H107.103C107.103 119.701 79 116.514 79 160.827C79 205.142 103.529 203.57 103.529 203.57H118.168V183.006C118.168 183.006 117.379 158.477 142.306 158.477H183.874C183.874 158.477 207.227 158.855 207.227 135.906V97.963C207.227 97.963 210.774 75 164.877 75ZM141.767 88.2692C142.758 88.2683 143.739 88.4627 144.654 88.8413C145.569 89.2199 146.4 89.7752 147.101 90.4755C147.801 91.1758 148.356 92.0074 148.735 92.9225C149.113 93.8377 149.308 94.8185 149.307 95.8089C149.308 96.7992 149.113 97.7801 148.735 98.6952C148.356 99.6104 147.801 100.442 147.101 101.142C146.4 101.842 145.569 102.398 144.654 102.776C143.739 103.155 142.758 103.349 141.767 103.348C140.777 103.349 139.796 103.155 138.881 102.776C137.966 102.398 137.134 101.842 136.434 101.142C135.734 100.442 135.178 99.6104 134.8 98.6952C134.421 97.7801 134.227 96.7992 134.228 95.8089C134.227 94.8185 134.421 93.8377 134.8 92.9225C135.178 92.0074 135.734 91.1758 136.434 90.4755C137.134 89.7752 137.966 89.2199 138.881 88.8413C139.796 88.4627 140.777 88.2683 141.767 88.2692V88.2692Z" fill="url(#paint0_linear_1410_2026)"/>
<path d="M166.124 247.101C210.042 247.101 207.3 228.056 207.3 228.056L207.251 208.324H165.34V202.4H223.897C223.897 202.4 252 205.588 252 161.273C252 116.959 227.471 118.531 227.471 118.531H212.832V139.094C212.832 139.094 213.621 163.623 188.694 163.623H147.126C147.126 163.623 123.773 163.246 123.773 186.195V224.139C123.773 224.139 120.226 247.101 166.123 247.101H166.124ZM189.233 233.833C188.243 233.834 187.262 233.64 186.347 233.261C185.432 232.883 184.6 232.327 183.9 231.627C183.2 230.927 182.644 230.095 182.266 229.18C181.887 228.265 181.693 227.284 181.694 226.294C181.693 225.303 181.887 224.322 182.266 223.407C182.644 222.492 183.199 221.66 183.9 220.96C184.6 220.259 185.432 219.704 186.347 219.325C187.262 218.947 188.243 218.752 189.233 218.753C190.224 218.752 191.204 218.947 192.12 219.325C193.035 219.704 193.866 220.259 194.567 220.96C195.267 221.66 195.822 222.491 196.201 223.407C196.579 224.322 196.774 225.303 196.773 226.293C196.774 227.283 196.579 228.264 196.201 229.179C195.822 230.094 195.267 230.926 194.567 231.626C193.866 232.327 193.035 232.882 192.12 233.26C191.204 233.639 190.224 233.833 189.233 233.833V233.833Z" fill="url(#paint1_linear_1410_2026)"/>
<path d="M450.179 184.113C449.251 184.113 448.575 184 448.148 183.774C447.747 183.524 447.547 183.148 447.547 182.646V139.221C447.547 138.494 447.697 137.98 447.998 137.68C448.324 137.379 448.838 137.229 449.54 137.229H463.075C466.985 137.229 470.444 138.168 473.452 140.048C476.485 141.903 478.001 145.325 478.001 150.312C478.001 154.022 477.136 156.905 475.407 158.96C473.677 160.99 471.735 162.356 469.579 163.058C467.424 163.735 465.481 164.073 463.751 164.073H453.375V182.646C453.375 183.148 453.161 183.524 452.735 183.774C452.309 184 451.645 184.113 450.743 184.113H450.179ZM463.827 158.998C464.955 158.998 466.133 158.759 467.361 158.283C468.589 157.782 469.654 156.892 470.557 155.614C471.459 154.31 471.91 152.543 471.91 150.312C471.91 147.33 471.02 145.249 469.241 144.071C467.486 142.893 465.368 142.304 462.887 142.304H453.375V158.998H463.827ZM489.318 197.911C487.864 197.911 487.137 197.548 487.137 196.821C487.137 196.645 487.237 196.282 487.438 195.73L493.04 182.12L481.347 150.914C481.322 150.814 481.285 150.676 481.234 150.5C481.184 150.3 481.159 150.15 481.159 150.049C481.159 149.698 481.397 149.423 481.874 149.222C482.35 149.022 483.077 148.921 484.054 148.921H484.581C486.084 148.921 486.974 149.272 487.25 149.974L494.055 168.096C494.657 169.675 495.371 171.919 496.198 174.826H496.311L497.101 172.345C497.226 171.969 497.439 171.33 497.74 170.427C498.041 169.5 498.316 168.723 498.567 168.096L505.222 149.974C505.447 149.272 506.362 148.921 507.966 148.921H508.192C509.946 148.921 510.824 149.297 510.824 150.049C510.824 150.225 510.761 150.526 510.636 150.952L493.491 196.52C493.09 197.447 492.037 197.911 490.333 197.911H489.318ZM527.931 184.376C525.7 184.376 523.707 183.699 521.953 182.346C520.198 180.992 519.321 178.598 519.321 175.165V153.847H515.975C515.498 153.847 515.147 153.696 514.922 153.396C514.721 153.07 514.621 152.556 514.621 151.854V151.027C514.621 150.325 514.721 149.824 514.922 149.523C515.147 149.197 515.498 149.034 515.975 149.034H519.321L520.11 142.041C520.16 141.063 520.875 140.575 522.253 140.575H522.893C523.594 140.575 524.108 140.7 524.434 140.951C524.76 141.176 524.923 141.54 524.923 142.041V149.034H530.525C531.001 149.034 531.34 149.197 531.54 149.523C531.766 149.824 531.878 150.325 531.878 151.027V151.854C531.878 152.556 531.766 153.07 531.54 153.396C531.34 153.696 531.001 153.847 530.525 153.847H524.923V174.638C524.923 176.468 525.236 177.746 525.863 178.473C526.514 179.2 527.392 179.563 528.495 179.563C529.347 179.563 529.999 179.513 530.45 179.413C530.926 179.313 531.239 179.263 531.39 179.263C531.791 179.263 532.117 179.664 532.367 180.466C532.643 181.268 532.781 181.907 532.781 182.383C532.781 183.712 531.164 184.376 527.931 184.376ZM543.91 184.113C542.13 184.113 541.24 183.624 541.24 182.646V135.198C541.24 134.221 542.13 133.732 543.91 133.732H544.173C545.978 133.732 546.88 134.221 546.88 135.198V153.245C548.183 151.917 549.712 150.826 551.467 149.974C553.221 149.097 555.089 148.658 557.069 148.658C559.876 148.658 562.345 149.448 564.476 151.027C566.631 152.606 567.709 155.413 567.709 159.449V182.646C567.709 183.624 566.819 184.113 565.04 184.113H564.776C562.972 184.113 562.069 183.624 562.069 182.646V160.013C562.069 157.982 561.493 156.391 560.34 155.238C559.187 154.085 557.495 153.508 555.264 153.508C553.785 153.508 552.419 153.859 551.166 154.561C549.938 155.263 548.91 156.027 548.083 156.854C547.281 157.657 546.88 158.108 546.88 158.208V182.646C546.88 183.624 545.978 184.113 544.173 184.113H543.91ZM592.072 184.376C587.034 184.376 583.187 182.872 580.53 179.864C577.898 176.831 576.582 172.432 576.582 166.667C576.582 160.903 577.923 156.466 580.605 153.358C583.287 150.225 587.109 148.658 592.072 148.658C596.985 148.658 600.745 150.212 603.352 153.32C605.958 156.403 607.262 160.852 607.262 166.667C607.262 172.458 605.971 176.856 603.389 179.864C600.833 182.872 597.06 184.376 592.072 184.376ZM591.884 179.563C595.143 179.563 597.549 178.511 599.103 176.405C600.657 174.275 601.434 170.991 601.434 166.555C601.434 162.093 600.657 158.797 599.103 156.667C597.549 154.536 595.143 153.471 591.884 153.471C588.651 153.471 586.27 154.536 584.741 156.667C583.212 158.772 582.447 162.068 582.447 166.555C582.447 171.016 583.199 174.3 584.703 176.405C586.232 178.511 588.626 179.563 591.884 179.563ZM619.406 184.113C618.453 184.113 617.764 184 617.338 183.774C616.912 183.524 616.699 183.148 616.699 182.646V159.186C616.699 156.278 616.561 154.185 616.285 152.907C616.009 151.603 615.872 150.889 615.872 150.764C615.872 150.212 616.285 149.824 617.112 149.598C617.965 149.347 618.767 149.222 619.519 149.222C620.145 149.222 620.609 149.561 620.91 150.237C621.21 150.914 621.424 151.603 621.549 152.305C621.699 153.007 621.799 153.458 621.85 153.659C623.253 152.08 624.87 150.851 626.7 149.974C628.555 149.097 630.422 148.658 632.302 148.658C635.711 148.658 638.368 149.623 640.272 151.553C642.202 153.458 643.167 156.09 643.167 159.449V182.646C643.167 183.148 642.954 183.524 642.528 183.774C642.102 184 641.425 184.113 640.498 184.113H640.197C639.295 184.113 638.631 184 638.205 183.774C637.778 183.524 637.565 183.148 637.565 182.646V160.013C637.565 157.957 636.964 156.366 635.761 155.238C634.583 154.085 632.916 153.508 630.76 153.508C629.256 153.508 627.74 153.934 626.211 154.787C624.707 155.614 623.404 156.754 622.301 158.208V182.646C622.301 183.148 622.088 183.524 621.662 183.774C621.236 184 620.571 184.113 619.669 184.113H619.406Z" fill="#323838"/>
<defs>
<filter id="filter0_di_1410_2026" x="36" y="36" width="768" height="258" filterUnits="userSpaceOnUse" color-interpolation-filters="sRGB">
<feFlood flood-opacity="0" result="BackgroundImageFix"/>
<feColorMatrix in="SourceAlpha" type="matrix" values="0 0 0 0 0 0 0 0 0 0 0 0 0 0 0 0 0 0 127 0" result="hardAlpha"/>
<feOffset dy="4"/>
<feGaussianBlur stdDeviation="2"/>
<feComposite in2="hardAlpha" operator="out"/>
<feColorMatrix type="matrix" values="0 0 0 0 0 0 0 0 0 0 0 0 0 0 0 0 0 0 0.25 0"/>
<feBlend mode="normal" in2="BackgroundImageFix" result="effect1_dropShadow_1410_2026"/>
<feBlend mode="normal" in="SourceGraphic" in2="effect1_dropShadow_1410_2026" result="shape"/>
<feColorMatrix in="SourceAlpha" type="matrix" values="0 0 0 0 0 0 0 0 0 0 0 0 0 0 0 0 0 0 127 0" result="hardAlpha"/>
<feOffset dy="4"/>
<feGaussianBlur stdDeviation="20"/>
<feComposite in2="hardAlpha" operator="arithmetic" k2="-1" k3="1"/>
<feColorMatrix type="matrix" values="0 0 0 0 0 0 0 0 0 0 0 0 0 0 0 0 0 0 0.25 0"/>
<feBlend mode="normal" in2="shape" result="effect2_innerShadow_1410_2026"/>
</filter>
<filter id="filter1_d_1410_2026" x="0" y="0" width="330" height="330" filterUnits="userSpaceOnUse" color-interpolation-filters="sRGB">
<feFlood flood-opacity="0" result="BackgroundImageFix"/>
<feColorMatrix in="SourceAlpha" type="matrix" values="0 0 0 0 0 0 0 0 0 0 0 0 0 0 0 0 0 0 127 0" result="hardAlpha"/>
<feOffset dy="4"/>
<feGaussianBlur stdDeviation="20"/>
<feComposite in2="hardAlpha" operator="out"/>
<feColorMatrix type="matrix" values="0 0 0 0 0 0 0 0 0 0 0 0 0 0 0 0 0 0 0.25 0"/>
<feBlend mode="normal" in2="BackgroundImageFix" result="effect1_dropShadow_1410_2026"/>
<feBlend mode="normal" in="SourceGraphic" in2="effect1_dropShadow_1410_2026" result="shape"/>
</filter>
<linearGradient id="paint0_linear_1410_2026" x1="95.6252" y1="90.4794" x2="181.359" y2="175.358" gradientUnits="userSpaceOnUse">
<stop stop-color="#387EB8"/>
<stop offset="1" stop-color="#366994"/>
</linearGradient>
<linearGradient id="paint1_linear_1410_2026" x1="148.248" y1="144.984" x2="240.316" y2="232.019" gradientUnits="userSpaceOnUse">
<stop stop-color="#FFE052"/>
<stop offset="1" stop-color="#FFC331"/>
</linearGradient>
</defs>
</svg>
